<svg width="20" height="20" viewBox="0 0 20 20" fill="none" xmlns="http://www.w3.org/2000/svg">
  <path d="M10 1.8c2.67 0 2.99.01 4.04.06.98.04 1.51.21 1.87.35.47.18.8.4 1.15.75.35.35.57.68.75 1.15.14.36.31.89.35 1.87.05 1.05.06 1.37.06 4.04s-.01 2.99-.06 4.04c-.04.98-.21 1.51-.35 1.87-.18.47-.4.8-.75 1.15-.35.35-.68.57-1.15.75-.36.14-.89.31-1.87.35-1.05.05-1.37.06-4.04.06s-2.99-.01-4.04-.06c-.98-.04-1.51-.21-1.87-.35-.47-.18-.8-.4-1.15-.75-.35-.35-.57-.68-.75-1.15-.14-.36-.31-.89-.35-1.87-.05-1.05-.06-1.37-.06-4.04s.01-2.99.06-4.04c.04-.98.21-1.51.35-1.87.18-.47.4-.8.75-1.15.35-.35.68-.57 1.15-.75.36-.14.89-.31 1.87-.35 1.05-.05 1.37-.06 4.04-.06zM10 0C7.28 0 6.94.01 5.88.06c-1.07.05-1.8.22-2.44.47-.66.26-1.22.6-1.78 1.16C1.1 2.25.76 2.81.5 3.47.25 4.11.08 4.84.03 5.91-.02 6.97 0 7.31 0 10s.01 3.06.06 4.12c.05 1.07.22 1.8.47 2.44.26.66.6 1.22 1.16 1.78.56.56 1.12.9 1.78 1.16.64.25 1.37.42 2.44.47 1.06.05 1.4.06 4.12.06s3.06-.01 4.12-.06c1.07-.05 1.8-.22 2.44-.47.66-.26 1.22-.6 1.78-1.16.56-.56.9-1.12 1.16-1.78.25-.64.42-1.37.47-2.44.05-1.06.06-1.4.06-4.12s-.01-3.06-.06-4.12c-.05-1.07-.22-1.8-.47-2.44-.26-.66-.6-1.22-1.16-1.78-.56-.56-1.12-.9-1.78-1.16-.64-.25-1.37-.42-2.44-.47C13.06.01 12.72 0 10 0z" fill="white"/>
  <path d="M10 4.87c-2.84 0-5.13 2.3-5.13 5.13S7.16 15.13 10 15.13 15.13 12.84 15.13 10 12.84 4.87 10 4.87zm0 8.47c-1.85 0-3.34-1.49-3.34-3.34S8.15 6.66 10 6.66s3.34 1.49 3.34 3.34-1.49 3.34-3.34 3.34z" fill="white"/>
  <circle cx="15.34" cy="4.66" r="1.2" fill="white"/>
</svg>

