<svg width="20" height="20" viewBox="0 0 20 20" fill="none" xmlns="http://www.w3.org/2000/svg">
  <path d="M17.05 2.9C15.2 1.05 12.7 0 10 0 4.5 0 0 4.5 0 10c0 1.75.45 3.45 1.3 5L0 20l5.15-1.35c1.5.8 3.15 1.2 4.85 1.2 5.5 0 10-4.5 10-10 0-2.7-1.05-5.2-2.95-7.1zM10 18.35c-1.5 0-2.95-.4-4.2-1.15l-.3-.2-3.15.8.85-3.05-.2-.3c-.8-1.3-1.25-2.8-1.25-4.35 0-4.6 3.75-8.35 8.35-8.35 2.25 0 4.35.85 5.9 2.45 1.55 1.55 2.45 3.65 2.45 5.9-.1 4.6-3.85 8.35-8.45 8.35zm4.55-6.2c-.25-.1-1.45-.7-1.7-.8-.2-.1-.35-.1-.5.1-.15.25-.55.8-.7.95-.1.15-.25.15-.45.05-.25-.1-.95-.35-1.85-1.15-.7-.6-1.15-1.35-1.25-1.6-.15-.25 0-.35.1-.45.1-.1.25-.25.35-.35.1-.15.15-.25.2-.4.05-.15.05-.3 0-.4-.05-.1-.45-1.1-.65-1.5-.2-.4-.4-.35-.5-.35-.15 0-.3 0-.45 0-.15 0-.4.05-.6.3-.2.25-.8.75-.8 1.85s.8 2.15.9 2.3c.1.15 1.55 2.4 3.8 3.35.55.2.95.35 1.3.45.05 0 1.05.4 2 .25.3-.05.95-.4 1.1-.75.1-.4.1-.7.05-.8-.05-.05-.2-.1-.4-.2z" fill="white"/>
</svg>

